SplineFontDB: 3.2
FontName: Fallout-Classic-Dialog
FullName: Fallout Classic Dialog
FamilyName: Fallout-Classic
Weight: Regular
Copyright: Copyright (c) 2022, Vitalis Sandor Ung (Slowhand at fodev.net, github.com/Sasabmeg)\n\nThis font is free to use by anyone for any reason. There is no guarantee nor any copyright/copyleft requirements to fufill by using, changing this font in any way towards the creator. You may ditch this copyright message if you create your own version based off this font.\n\nThe font was created from scratch with the aim to help the fan based Fallout Online (Classic) development at fodev.net. There was 10px png version that resembled the original Fallout 1/2 default font, but with higher resolutions this was barely readable, and not suited for releases where there was significant focus on dialogs. Other font were available like the JH_fallout.ttf by Jorio Hatagaya which wasn't the best resemblence and the Fallouty.ttf by "". I didn't want base this font off with an old copyright and recreated the font from scratch, with the aim to include support for most European languages and Cyrillic letters as well. Some similarities may present to predecessor Fallout fonts, but those are because both are based off the Fallout games.\n\nSince the aim was for this font was to resemble the dialog font of Fallout 1/2 games at low size, one should not use this font at 8-10px size in comercial releases to avoid legal issues with current owners of the Fallout franchise, but this copyright does not restrict such use.
UComments: "2022-12-17: Created with FontForge (http://fontforge.org)"
Version: 1.00
ItalicAngle: 0
UnderlinePosition: -101
UnderlineWidth: 50
Ascent: 819
Descent: 205
InvalidEm: 0
sfntRevision: 0x00010000
LayerCount: 2
Layer: 0 1 "Back" 1
Layer: 1 1 "Fore" 0
XUID: [1021 448 459894302 26878]
FSType: 0
OS2Version: 0
OS2_WeightWidthSlopeOnly: 0
OS2_UseTypoMetrics: 1
CreationTime: 1671241044
ModificationTime: 1671523422
PfmFamily: 17
TTFWeight: 400

StartChar: c
Encoding: 99 99 0
Width: 578
Flags: W
LayerCount: 2
Fore
SplineSet
250 511.799804688 m 2,0,-1
 500 511.799804688 l 1,1,-1
 500 381.400390625 l 1,2,-1
 200 381.400390625 l 1,3,-1
 150 331 l 1,4,-1
 150 179.400390625 l 1,5,-1
 200 128.200195312 l 1,6,-1
 500 128.200195312 l 1,7,-1
 500 -0.2001953125 l 1,8,-1
 250 -0.2001953125 l 2,9,10
 196.341646456 0.417637216488 196.341646456 0.417637216488 151.372974633 18.4430922987 c 128,-1,11
 106.40430281 36.4685473808 106.40430281 36.4685473808 77.3310184225 66.4230342446 c 128,-1,12
 48.2577340352 96.3775211083 48.2577340352 96.3775211083 27.9026090852 135.008764452 c 128,-1,13
 7.54748413527 173.640007796 7.54748413527 173.640007796 3.12200993482 216.128423155 c 128,-1,14
 -1.30346426564 258.616838513 -1.30346426564 258.616838513 3.01731298185 301.007210526 c 128,-1,15
 7.33809022933 343.397582538 7.33809022933 343.397582538 27.6227815398 381.573266798 c 128,-1,16
 47.9074728502 419.748951058 47.9074728502 419.748951058 76.9665076192 449.051792144 c 128,-1,17
 106.025542388 478.354633231 106.025542388 478.354633231 151.082754534 495.370926799 c 128,-1,18
 196.139966679 512.387220366 196.139966679 512.387220366 250 511.799804688 c 2,0,-1
EndSplineSet
EndChar

StartChar: A
Encoding: 65 65 1
Width: 783
Flags: W
LayerCount: 2
Fore
SplineSet
536.444335938 308 m 1,0,-1
 538.23828125 461 l 1,1,-1
 381.288085938 306 l 1,2,-1
 536.444335938 308 l 1,0,-1
699.671875 666.400390625 m 1,3,-1
 700.328125 -0.220703125 l 1,4,-1
 539.037109375 -0.220703125 l 1,5,-1
 537.888671875 188.611328125 l 1,6,-1
 271.485351562 187.883789062 l 1,7,-1
 90.181640625 0.4150390625 l 1,8,-1
 1.212890625 0.4150390625 l 1,9,-1
 1.353515625 101.240234375 l 1,10,-1
 538.23828125 666.400390625 l 1,11,-1
 699.671875 666.400390625 l 1,3,-1
EndSplineSet
EndChar

StartChar: p
Encoding: 112 112 2
Width: 578
Flags: W
LayerCount: 2
Fore
SplineSet
302.993164062 128.200195312 m 1,0,-1
 352.993164062 179.400390625 l 1,1,-1
 352.993164062 333 l 1,2,-1
 302.993164062 383.400390625 l 1,3,-1
 128.993164062 383.400390625 l 1,4,-1
 128.994140625 128.200195312 l 1,5,-1
 302.993164062 128.200195312 l 1,0,-1
0 511.799804688 m 1,6,-1
 128.993164062 511.799804688 l 1,7,-1
 252.993164062 511.799804688 l 2,8,9
 305.898991846 511.799804688 305.898991846 511.799804688 350.276912818 494.321767584 c 128,-1,10
 394.65483379 476.84373048 394.65483379 476.84373048 423.387366696 447.267618026 c 128,-1,11
 452.119899603 417.691505572 452.119899603 417.691505572 472.26587726 379.347112663 c 128,-1,12
 492.411854917 341.002719754 492.411854917 341.002719754 496.841874155 298.608131572 c 128,-1,13
 501.271893393 256.21354339 501.271893393 256.21354339 497.057503739 213.804556507 c 128,-1,14
 492.843114084 171.395569624 492.843114084 171.395569624 472.842195657 132.984267546 c 128,-1,15
 452.841277231 94.5729654676 452.841277231 94.5729654676 424.138096267 64.9011464418 c 128,-1,16
 395.434915303 35.2293274159 395.434915303 35.2293274159 350.874635215 17.6030732727 c 128,-1,17
 306.314355126 -0.0231808704213 306.314355126 -0.0231808704213 252.993164062 -0.2001953125 c 2,18,-1
 130.491210938 -0.2001953125 l 1,19,-1
 127.497070312 -205 l 1,20,-1
 0 -205 l 1,21,-1
 0 511.799804688 l 1,6,-1
EndSplineSet
EndChar

StartChar: a
Encoding: 97 97 3
Width: 585
Flags: W
LayerCount: 2
Fore
SplineSet
200 126.200195312 m 1,0,-1
 374 126.200195312 l 1,1,-1
 374 383.400390625 l 1,2,-1
 200 383.400390625 l 1,3,-1
 150 333 l 1,4,-1
 150 177.400390625 l 1,5,-1
 200 126.200195312 l 1,0,-1
500 511.799804688 m 1,6,-1
 500 -0.2001953125 l 1,7,-1
 400 -0.2001953125 l 1,8,-1
 250 -0.2001953125 l 2,9,10
 196.678966428 -0.0231808704412 196.678966428 -0.0231808704412 152.1188182 17.6030732727 c 128,-1,11
 107.558669971 35.2293274159 107.558669971 35.2293274159 78.8555741614 64.9011464418 c 128,-1,12
 50.1524783519 94.5729654676 50.1524783519 94.5729654676 30.1516194471 132.984267546 c 128,-1,13
 10.1507605423 171.395569624 10.1507605423 171.395569624 5.93638370362 213.804556507 c 128,-1,14
 1.72200686497 256.21354339 1.72200686497 256.21354339 6.15201328712 298.608131572 c 128,-1,15
 10.5820197093 341.002719754 10.5820197093 341.002719754 30.7279378446 379.347112663 c 128,-1,16
 50.8738559799 417.691505572 50.8738559799 417.691505572 79.6063037321 447.267618026 c 128,-1,17
 108.338751484 476.84373048 108.338751484 476.84373048 152.716540597 494.321767584 c 128,-1,18
 197.094329709 511.799804688 197.094329709 511.799804688 250 511.799804688 c 2,19,-1
 400 511.799804688 l 1,20,-1
 500 511.799804688 l 1,6,-1
EndSplineSet
EndChar

StartChar: B
Encoding: 66 66 4
Width: 676
Flags: W
LayerCount: 2
Fore
SplineSet
399.896484375 128.701171875 m 1,0,-1
 450.44140625 180.225585938 l 1,1,2
 451.054380454 189.568817497 451.054380454 189.568817497 450.547851562 227.446289062 c 1,3,-1
 400.109375 277.142578125 l 1,4,-1
 151.321289062 277.435546875 l 1,5,-1
 150.90625 128.115234375 l 1,6,-1
 399.896484375 128.701171875 l 1,0,-1
399.482421875 397.455078125 m 1,7,-1
 448.5625 447.90625 l 1,8,-1
 449.466796875 488.248046875 l 1,9,-1
 400.168945312 540.169921875 l 1,10,-1
 150.4921875 540.412109375 l 1,11,-1
 150.25 397.798828125 l 1,12,-1
 399.482421875 397.455078125 l 1,7,-1
0.5 668.178710938 m 1,13,-1
 151.90625 667.678710938 l 1,14,-1
 422.217773438 668.178710938 l 2,15,16
 464.724474093 668.53430955 464.724474093 668.53430955 499.77750733 648.968100647 c 128,-1,17
 534.830540566 629.401891745 534.830540566 629.401891745 555.741332189 598.606402933 c 128,-1,18
 576.652123811 567.810914122 576.652123811 567.810914122 586.27988544 529.315982954 c 128,-1,19
 595.907647069 490.821051785 595.907647069 490.821051785 591.918379353 454.25390004 c 128,-1,20
 587.929111637 417.686748294 587.929111637 417.686748294 568.537146363 385.580206406 c 128,-1,21
 549.145181089 353.473664517 549.145181089 353.473664517 516.37109375 336.389648438 c 1,22,23
 549.814522499 320.435977553 549.814522499 320.435977553 570.616444452 288.63306849 c 128,-1,24
 591.418366405 256.830159428 591.418366405 256.830159428 596.975271043 219.840767773 c 128,-1,25
 602.532175682 182.851376117 602.532175682 182.851376117 593.800616905 143.551462226 c 128,-1,26
 585.069058129 104.251548335 585.069058129 104.251548335 564.109855823 72.5044685828 c 128,-1,27
 543.150653517 40.7573888306 543.150653517 40.7573888306 505.945075817 20.2917960657 c 128,-1,28
 468.739498117 -0.173796699203 468.739498117 -0.173796699203 422.012695312 -0.2939453125 c 2,29,-1
 -0.4140625 -0.9150390625 l 1,30,-1
 0.5 668.178710938 l 1,13,-1
EndSplineSet
EndChar

StartChar: b
Encoding: 98 98 5
Width: 578
Flags: W
LayerCount: 2
Fore
SplineSet
302.993164062 128.200195312 m 1,0,-1
 352.993164062 179.400390625 l 1,1,-1
 352.993164062 333 l 1,2,-1
 302.993164062 383.400390625 l 1,3,-1
 128.993164062 383.400390625 l 1,4,-1
 128.993164062 128.200195312 l 1,5,-1
 302.993164062 128.200195312 l 1,0,-1
0 666.400390625 m 1,6,-1
 128.497070312 666.400390625 l 1,7,-1
 128.993164062 511.799804688 l 1,8,-1
 252.993164062 511.799804688 l 2,9,10
 305.898991846 511.799804688 305.898991846 511.799804688 350.276912818 494.321767584 c 128,-1,11
 394.65483379 476.84373048 394.65483379 476.84373048 423.387366696 447.267618026 c 128,-1,12
 452.119899603 417.691505572 452.119899603 417.691505572 472.26587726 379.347112663 c 128,-1,13
 492.411854917 341.002719754 492.411854917 341.002719754 496.841874155 298.608131572 c 128,-1,14
 501.271893393 256.21354339 501.271893393 256.21354339 497.057503739 213.804556507 c 128,-1,15
 492.843114084 171.395569624 492.843114084 171.395569624 472.842195657 132.984267546 c 128,-1,16
 452.841277231 94.5729654676 452.841277231 94.5729654676 424.138096267 64.9011464418 c 128,-1,17
 395.434915303 35.2293274159 395.434915303 35.2293274159 350.874635215 17.6030732727 c 128,-1,18
 306.314355126 -0.0231808704213 306.314355126 -0.0231808704213 252.993164062 -0.2001953125 c 2,19,-1
 102.993164062 -0.2001953125 l 1,20,-1
 0 -0.2001953125 l 1,21,-1
 0 666.400390625 l 1,6,-1
EndSplineSet
EndChar

StartChar: C
Encoding: 67 67 6
Width: 636
Flags: W
LayerCount: 2
Fore
SplineSet
554 2 m 1,0,-1
 200 1 l 1,1,2
 135 13 135 13 88.5 64 c 128,-1,3
 42 115 42 115 22 184 c 128,-1,4
 2 253 2 253 2.5 333 c 128,-1,5
 3 413 3 413 24.5 482.5 c 128,-1,6
 46 552 46 552 92 603.5 c 128,-1,7
 138 655 138 655 200 668 c 1,8,-1
 555 667 l 1,9,-1
 555 521 l 1,10,-1
 249 521 l 1,11,-1
 200 468 l 1,12,-1
 201 196 l 1,13,-1
 250 142 l 1,14,-1
 554 142 l 1,15,-1
 554 2 l 1,0,-1
EndSplineSet
EndChar

StartChar: D
Encoding: 68 68 7
Width: 696
Flags: W
LayerCount: 2
Fore
SplineSet
150.5 154 m 1,0,-1
 384 154 l 1,1,-1
 428 202 l 1,2,-1
 428 460.5 l 1,3,-1
 383 512 l 1,4,-1
 150 512 l 1,5,-1
 150.5 154 l 1,0,-1
0 666.70703125 m 1,6,-1
 300 667 l 2,7,8
 368 667 368 667 425 644.5 c 128,-1,9
 482 622 482 622 519.5 583.5 c 128,-1,10
 557 545 557 545 583.5 495 c 128,-1,11
 610 445 610 445 616 390 c 128,-1,12
 622 335 622 335 617 280 c 128,-1,13
 612 225 612 225 586.5 175 c 128,-1,14
 561 125 561 125 524 86.5 c 128,-1,15
 487 48 487 48 428.5 24.5 c 128,-1,16
 370 1 370 1 299 1 c 2,17,-1
 0 -1 l 1,18,-1
 0 666.70703125 l 1,6,-1
EndSplineSet
EndChar

StartChar: s
Encoding: 115 115 8
Width: 578
Flags: W
LayerCount: 2
Fore
SplineSet
125.41796875 511.799804688 m 1,0,-1
 450 511.799804688 l 1,1,-1
 450 403.400390625 l 1,2,-1
 133.7265625 403.400390625 l 1,3,-1
 106 376.095703125 l 1,4,-1
 106 340.348632812 l 1,5,-1
 133.373046875 315 l 1,6,-1
 373.01953125 315 l 2,7,8
 407.437558025 315.053451005 407.437558025 315.053451005 434.550676175 297.658285217 c 128,-1,9
 461.663794325 280.263119428 461.663794325 280.263119428 475.737549271 252.416483028 c 128,-1,10
 489.811304218 224.569846627 489.811304218 224.569846627 496.523053407 190.888902017 c 128,-1,11
 503.234802596 157.207957407 503.234802596 157.207957407 496.855852843 123.54642563 c 128,-1,12
 490.476903089 89.8848938517 490.476903089 89.8848938517 476.678466354 62.0795907926 c 128,-1,13
 462.880029618 34.2742877336 462.880029618 34.2742877336 435.9395582 16.9592809502 c 128,-1,14
 408.999086782 -0.355725833131 408.999086782 -0.355725833131 374.58203125 -0.2001953125 c 2,15,-1
 0 -0.2001953125 l 1,16,-1
 0 108.200195312 l 1,17,-1
 368.749023438 108.200195312 l 1,18,-1
 394 133.737304688 l 1,19,-1
 394 167.942382812 l 1,20,-1
 365.919921875 196.599609375 l 1,21,-1
 122.575195312 196.599609375 l 2,22,23
 75.4770397995 198.613178971 75.4770397995 198.613178971 43.5332477795 232.384085856 c 128,-1,24
 11.5894557594 266.154992741 11.5894557594 266.154992741 4.54866628302 312.736515707 c 128,-1,25
 -2.49212319339 359.318038673 -2.49212319339 359.318038673 5.35512277948 405.297117106 c 128,-1,26
 13.2023687524 451.276195539 13.2023687524 451.276195539 45.733666283 482.438140707 c 128,-1,27
 78.2649638137 513.600085875 78.2649638137 513.600085875 125.41796875 511.799804688 c 1,0,-1
EndSplineSet
EndChar

StartChar: d
Encoding: 100 100 9
Width: 580
Flags: W
LayerCount: 2
Fore
SplineSet
376 124.200195312 m 1,0,-1
 376 383.400390625 l 1,1,-1
 200 383.400390625 l 1,2,-1
 150 333 l 1,3,-1
 150 175.400390625 l 1,4,-1
 200 124.200195312 l 1,5,-1
 376 124.200195312 l 1,0,-1
376 666.400390625 m 1,6,-1
 500 666.400390625 l 1,7,-1
 500 -0.2001953125 l 1,8,-1
 250 -0.2001953125 l 2,9,10
 190.591561454 -0.2001953125 190.591561454 -0.2001953125 142.426343801 21.7998046875 c 128,-1,11
 94.2611261485 43.7998046875 94.2611261485 43.7998046875 64.5997563576 79.7998046875 c 128,-1,12
 34.9383865668 115.799804688 34.9383865668 115.799804688 18.7931193138 161.799804688 c 128,-1,13
 2.64785206075 207.799804688 2.64785206075 207.799804688 2.55098926778 255.799804688 c 128,-1,14
 2.45412647481 303.799804688 2.45412647481 303.799804688 18.4614695335 349.799804688 c 128,-1,15
 34.4688125922 395.799804688 34.4688125922 395.799804688 64.0691167092 431.799804688 c 128,-1,16
 93.6694208262 467.799804688 93.6694208262 467.799804688 141.962034109 489.799804688 c 128,-1,17
 190.254647391 511.799804688 190.254647391 511.799804688 250 511.799804688 c 2,18,-1
 376 511.799804688 l 1,19,-1
 376 666.400390625 l 1,6,-1
EndSplineSet
EndChar

StartChar: E
Encoding: 69 69 10
Width: 678
Flags: W
LayerCount: 2
Fore
SplineSet
0 666 m 1,0,-1
 600 666.400390625 l 1,1,-1
 600 531.799804688 l 1,2,-1
 178 531.799804688 l 1,3,-1
 178 403.400390625 l 1,4,-1
 600 403.400390625 l 1,5,-1
 600 265.799804688 l 1,6,-1
 178 265.799804688 l 1,7,-1
 178 135.29296875 l 1,8,-1
 600 135.400390625 l 1,9,-1
 600 -0.2001953125 l 1,10,-1
 0 -0.5 l 1,11,-1
 0 666 l 1,0,-1
EndSplineSet
EndChar

StartChar: F
Encoding: 70 70 11
Width: 679
Flags: W
LayerCount: 2
Fore
SplineSet
0 666 m 1,0,-1
 600 666.400390625 l 1,1,-1
 600 539.799804688 l 1,2,-1
 150 539.799804688 l 1,3,-1
 150 395.400390625 l 1,4,-1
 600 395.400390625 l 1,5,-1
 600 277.799804688 l 1,6,-1
 150 277.799804688 l 1,7,-1
 150 -0.2001953125 l 1,8,-1
 0 -0.5 l 1,9,-1
 0 666 l 1,0,-1
EndSplineSet
EndChar

StartChar: G
Encoding: 71 71 12
Width: 682
Flags: W
LayerCount: 2
Fore
SplineSet
0 563 m 1,0,-1
 100 666.400390625 l 1,1,-1
 600 666.400390625 l 1,2,-1
 600 511.799804688 l 1,3,-1
 200 511.799804688 l 1,4,-1
 150 460.599609375 l 1,5,-1
 150 204.599609375 l 1,6,-1
 200 153.400390625 l 1,7,-1
 450 153.400390625 l 1,8,-1
 450 255.799804688 l 1,9,-1
 300 255.799804688 l 1,10,-1
 300 387.284179688 l 1,11,-1
 600 387.284179688 l 1,12,-1
 600 307 l 1,13,-1
 600 102.200195312 l 1,14,-1
 500 -0.2001953125 l 1,15,-1
 100 -0.2001953125 l 1,16,-1
 0 102.200195312 l 1,17,-1
 0 563 l 1,0,-1
EndSplineSet
EndChar

StartChar: H
Encoding: 72 72 13
Width: 680
Flags: W
LayerCount: 2
Fore
SplineSet
600 666.400390625 m 1,0,-1
 600 -0.2001953125 l 1,1,-1
 450 -0.2001953125 l 1,2,-1
 450 255.799804688 l 1,3,-1
 172 255.799804688 l 1,4,-1
 172 -0.2001953125 l 1,5,-1
 0 -0.2001953125 l 1,6,-1
 0 666.400390625 l 1,7,-1
 172 666.400390625 l 1,8,-1
 172 409.400390625 l 1,9,-1
 450 409.400390625 l 1,10,-1
 450 666.400390625 l 1,11,-1
 600 666.400390625 l 1,0,-1
EndSplineSet
EndChar

StartChar: I
Encoding: 73 73 14
Width: 304
Flags: W
LayerCount: 2
Fore
SplineSet
226 -0.2001953125 m 1,0,-1
 0 -0.2001953125 l 1,1,-1
 0 666.400390625 l 1,2,-1
 226 666.400390625 l 1,3,-1
 226 -0.2001953125 l 1,0,-1
EndSplineSet
EndChar

StartChar: J
Encoding: 74 74 15
Width: 678
Flags: W
LayerCount: 2
Fore
SplineSet
600 666.400390625 m 1,0,-1
 600 152.599609375 l 2,1,2
 600 109.666425848 600 109.666425848 566.909620991 76.1230417344 c 128,-1,3
 533.819241983 42.579657621 533.819241983 42.579657621 480.903790087 25.4204964398 c 128,-1,4
 427.988338192 8.26133525862 427.988338192 8.26133525862 363.994169096 0.334007705575 c 128,-1,5
 300 -7.59331984747 300 -7.59331984747 236.005830904 0.674681707691 c 128,-1,6
 172.011661808 8.94268326285 172.011661808 8.94268326285 119.096209913 26.2866145296 c 128,-1,7
 66.1807580175 43.6305457963 66.1807580175 43.6305457963 33.0903790087 76.9809123473 c 128,-1,8
 0 110.331278898 0 110.331278898 0 152.599609375 c 2,9,-1
 0 307 l 1,10,-1
 178 307 l 1,11,-1
 178 153.400390625 l 1,12,-1
 228 102.200195312 l 1,13,-1
 400 102.200195312 l 1,14,-1
 450 153.400390625 l 1,15,-1
 450 666.400390625 l 1,16,-1
 600 666.400390625 l 1,0,-1
EndSplineSet
EndChar

StartChar: K
Encoding: 75 75 16
Width: 680
Flags: W
LayerCount: 2
Fore
SplineSet
0 666.400390625 m 1,0,-1
 178 666.400390625 l 1,1,-1
 178 359 l 1,2,-1
 226 359 l 1,3,-1
 526 666.400390625 l 1,4,-1
 600 666.400390625 l 1,5,-1
 600 563 l 1,6,-1
 350 307 l 1,7,-1
 600 51 l 1,8,-1
 600 -0.2001953125 l 1,9,-1
 474 -0.2001953125 l 1,10,-1
 224 255.799804688 l 1,11,-1
 178 255.799804688 l 1,12,-1
 178 -0.2001953125 l 1,13,-1
 0 -0.2001953125 l 1,14,-1
 0 666.400390625 l 1,0,-1
EndSplineSet
EndChar

StartChar: L
Encoding: 76 76 17
Width: 686
Flags: W
LayerCount: 2
Fore
SplineSet
178 666.400390625 m 1,0,-1
 178 102.200195312 l 1,1,-1
 600 102.200195312 l 1,2,-1
 600 -0.2001953125 l 1,3,-1
 0 -1.244140625 l 1,4,-1
 0 666.400390625 l 1,5,-1
 178 666.400390625 l 1,0,-1
EndSplineSet
EndChar

StartChar: M
Encoding: 77 77 18
Width: 706
Flags: W
LayerCount: 2
Fore
SplineSet
0 665 m 1,0,-1
 426.5 666.400390625 l 2,1,2
 518.340743204 666.400390625 518.340743204 666.400390625 572.039774764 596.014044805 c 128,-1,3
 625.738806324 525.627698986 625.738806324 525.627698986 625.70703125 409.400390625 c 2,4,-1
 626 -0.2001953125 l 1,5,-1
 476 -0.2001953125 l 1,6,-1
 476 459.799804688 l 1,7,-1
 421 511 l 1,8,-1
 376 511 l 1,9,-1
 376 -0.2001953125 l 1,10,-1
 276 -0.2001953125 l 1,11,-1
 276 459.799804688 l 1,12,-1
 226 511 l 1,13,-1
 176 511 l 1,14,-1
 176 -0.2001953125 l 1,15,-1
 0 0 l 1,16,-1
 0 665 l 1,0,-1
EndSplineSet
EndChar

StartChar: N
Encoding: 78 78 19
Width: 730
Flags: W
LayerCount: 2
Fore
SplineSet
0 666.400390625 m 1,0,-1
 180 666.400390625 l 1,1,-1
 180.0859375 614.200195312 l 1,2,-1
 500 306.200195312 l 1,3,-1
 500 666.400390625 l 1,4,-1
 650 666.400390625 l 1,5,-1
 650 -0.2001953125 l 1,6,-1
 500 -0.2001953125 l 1,7,-1
 500 153.400390625 l 1,8,-1
 180 460.599609375 l 1,9,-1
 180 -0.2001953125 l 1,10,-1
 0 -0.2001953125 l 1,11,-1
 0 666.400390625 l 1,0,-1
EndSplineSet
EndChar

StartChar: h
Encoding: 104 104 20
Width: 580
Flags: W
LayerCount: 2
Fore
SplineSet
0 666.400390625 m 1,0,-1
 130 666.400390625 l 1,1,-1
 130 511.799804688 l 1,2,-1
 350 511.799804688 l 2,3,4
 380.7960952 511.799804688 380.7960952 511.799804688 405.445350013 499.743847372 c 128,-1,5
 430.094604826 487.687890056 430.094604826 487.687890056 445.429285555 470.384130717 c 128,-1,6
 460.763966285 453.080371378 460.763966285 453.080371378 471.91765322 426.391180189 c 128,-1,7
 483.071340155 399.701988999 483.071340155 399.701988999 488.286428413 378.237287605 c 128,-1,8
 493.50151667 356.772586211 493.50151667 356.772586211 496.407449138 328.072860673 c 128,-1,9
 499.313381607 299.373135136 499.313381607 299.373135136 499.656690803 286.370191213 c 128,-1,10
 500 273.36724729 500 273.36724729 500 255.799804688 c 2,11,-1
 500 -0.2001953125 l 1,12,-1
 374 -0.2001953125 l 1,13,-1
 374 327 l 1,14,-1
 324 379 l 1,15,-1
 130 379 l 1,16,-1
 130 -0.2001953125 l 1,17,-1
 0 -0.2001953125 l 1,18,-1
 0 666.400390625 l 1,0,-1
EndSplineSet
EndChar

StartChar: O
Encoding: 79 79 21
Width: 730
Flags: W
LayerCount: 2
Fore
SplineSet
428 533.799804688 m 1,0,-1
 222 533.799804688 l 1,1,-1
 150 460.599609375 l 1,2,-1
 150 204.599609375 l 1,3,-1
 224 129.400390625 l 1,4,-1
 426 129.400390625 l 1,5,-1
 500 204.599609375 l 1,6,-1
 500 460.599609375 l 1,7,-1
 428 533.799804688 l 1,0,-1
325 666.400390625 m 0,8,9
 493.769845411 666.400390625 493.769845411 666.400390625 571.884922706 585.564927045 c 128,-1,10
 650 504.729463465 650 504.729463465 650 330 c 0,11,12
 650 158.997142119 650 158.997142119 571.799841924 79.398473403 c 128,-1,13
 493.599683848 -0.2001953125 493.599683848 -0.2001953125 325 -0.2001953125 c 0,14,15
 156.169896707 -0.2001953125 156.169896707 -0.2001953125 78.0849483536 80.0161204619 c 128,-1,16
 0 160.232436236 0 160.232436236 0 334 c 0,17,18
 0 505.964757583 0 505.964757583 78.2297175413 586.182574104 c 128,-1,19
 156.459435083 666.400390625 156.459435083 666.400390625 325 666.400390625 c 0,8,9
EndSplineSet
EndChar

StartChar: P
Encoding: 80 80 22
Width: 680
Flags: W
LayerCount: 2
Fore
SplineSet
150 359 m 1,0,-1
 400 359 l 1,1,-1
 450 409.400390625 l 1,2,-1
 450 483.799804688 l 1,3,-1
 400 535 l 1,4,-1
 150 535 l 1,5,-1
 150 359 l 1,0,-1
0 -2 m 1,6,-1
 0 666.400390625 l 1,7,-1
 400 666.400390625 l 2,8,9
 438.732301191 666.400390625 438.732301191 666.400390625 473.642883532 653.297968547 c 128,-1,10
 508.553465873 640.195546468 508.553465873 640.195546468 537.294616468 614.458852132 c 128,-1,11
 566.035767064 588.722157796 566.035767064 588.722157796 583.017883532 545.385096232 c 128,-1,12
 600 502.048034668 600 502.048034668 600 446.599609375 c 128,-1,13
 600 391.142604283 600 391.142604283 583.010054636 347.656946091 c 128,-1,14
 566.020109273 304.1712879 566.020109273 304.1712879 537.302445364 278.242712112 c 128,-1,15
 508.584781455 252.314136323 508.584781455 252.314136323 473.635054636 239.056970505 c 128,-1,16
 438.685327818 225.799804688 438.685327818 225.799804688 400 225.799804688 c 2,17,-1
 150 225.799804688 l 1,18,-1
 150 -0.2001953125 l 1,19,-1
 0 -2 l 1,6,-1
EndSplineSet
EndChar

StartChar: Q
Encoding: 81 81 23
Width: 732
Flags: W
LayerCount: 2
Fore
SplineSet
428 533.799804688 m 1,0,-1
 224 535.799804688 l 1,1,-1
 150 460.599609375 l 1,2,-1
 150 204.599609375 l 1,3,-1
 228 125.400390625 l 1,4,-1
 276 125.400390625 l 1,5,-1
 276 232.599609375 l 1,6,-1
 376 232.599609375 l 1,7,-1
 376 125.400390625 l 1,8,-1
 422 125.400390625 l 1,9,-1
 500 204.599609375 l 1,10,-1
 500 460.599609375 l 1,11,-1
 428 533.799804688 l 1,0,-1
325 666.400390625 m 0,12,13
 493.769845411 666.400390625 493.769845411 666.400390625 571.884922706 585.564927045 c 128,-1,14
 650 504.729463465 650 504.729463465 650 330 c 0,15,16
 650 158.771056726 650 158.771056726 572.522763946 79.2854307068 c 128,-1,17
 495.045527892 -0.2001953125 495.045527892 -0.2001953125 326.665039062 -0.2001953125 c 0,18,19
 157.613935305 -0.2001953125 157.613935305 -0.2001953125 78.8069676526 80.1284344295 c 128,-1,20
 0 160.457064171 0 160.457064171 0 334 c 0,21,22
 0 505.964757583 0 505.964757583 78.2297175413 586.182574104 c 128,-1,23
 156.459435083 666.400390625 156.459435083 666.400390625 325 666.400390625 c 0,12,13
376.2421875 -0.3466796875 m 1,24,-1
 548.508789062 -0.2001953125 l 1,25,-1
 650 -80.599609375 l 1,26,-1
 376 -80.599609375 l 1,27,-1
 376.2421875 -0.3466796875 l 1,24,-1
EndSplineSet
EndChar

StartChar: R
Encoding: 82 82 24
Width: 705
Flags: W
LayerCount: 2
Fore
SplineSet
626 127.079101562 m 2,0,-1
 626 -0.2001953125 l 1,1,-1
 486 -0.2001953125 l 1,2,-1
 486 174.776367188 l 1,3,-1
 426 225.799804688 l 1,4,-1
 426 359 l 1,5,6
 472.922682476 359 472.922682476 359 521.064003952 316.958105469 c 128,-1,7
 569.205325429 274.916210938 569.205325429 274.916210938 597.602662714 220.801334635 c 128,-1,8
 626 166.686458333 626 166.686458333 626 127.079101562 c 2,0,-1
152 359 m 1,9,-1
 426 359 l 1,10,-1
 484 409.400390625 l 1,11,-1
 484 483.799804688 l 1,12,-1
 426 535 l 1,13,-1
 152 535 l 1,14,-1
 152 359 l 1,9,-1
0 -0.2001953125 m 1,15,-1
 0 666.400390625 l 1,16,-1
 426 666.400390625 l 2,17,18
 455.568221529 666.400390625 455.568221529 666.400390625 488.771786921 653.132055725 c 128,-1,19
 521.975352314 639.863720826 521.975352314 639.863720826 553.446963079 614.624764953 c 128,-1,20
 584.918573843 589.385809081 584.918573843 589.385809081 605.459286921 545.219183411 c 128,-1,21
 626 501.052557741 626 501.052557741 626 446.599609375 c 0,22,23
 626 403.346311322 626 403.346311322 607.452544343 365.083425854 c 128,-1,24
 588.905088686 326.820540386 588.905088686 326.820540386 562.563455657 302.477800709 c 128,-1,25
 536.221822628 278.135061031 536.221822628 278.135061031 506.716544343 260.049894604 c 128,-1,26
 477.211266058 241.964728177 477.211266058 241.964728177 456.067455657 234.068175709 c 128,-1,27
 434.923645257 226.17162324 434.923645257 226.17162324 426 225.799804688 c 2,28,-1
 152 225.799804688 l 1,29,-1
 152 -0.2001953125 l 1,30,-1
 0 -0.2001953125 l 1,15,-1
EndSplineSet
EndChar

StartChar: S
Encoding: 83 83 25
Width: 676
Flags: W
LayerCount: 2
Fore
SplineSet
150 666.400390625 m 2,0,-1
 550 666.400390625 l 1,1,-1
 550 553 l 1,2,-1
 180 553 l 1,3,-1
 130 501.799804688 l 1,4,-1
 130 444.400390625 l 1,5,-1
 180 390 l 1,6,-1
 448 391 l 2,7,8
 489.152839237 391.294982266 489.152839237 391.294982266 521.469387755 369.875960479 c 128,-1,9
 553.785936273 348.456938692 553.785936273 348.456938692 570.448979592 313.976663997 c 128,-1,10
 587.11202291 279.496389302 587.11202291 279.496389302 594.93877551 237.72548444 c 128,-1,11
 602.76552811 195.954579578 602.76552811 195.954579578 594.93877551 154.127572798 c 128,-1,12
 587.11202291 112.300566018 587.11202291 112.300566018 570.448979592 77.7008511495 c 128,-1,13
 553.785936273 43.1011362807 553.785936273 43.1011362807 521.469387755 21.4504704841 c 128,-1,14
 489.152839237 -0.2001953125 489.152839237 -0.2001953125 448 -0.2001953125 c 2,15,-1
 0 -0.2001953125 l 1,16,-1
 0 112.200195312 l 1,17,-1
 422 112.200195312 l 1,18,-1
 472 163.400390625 l 1,19,-1
 472 229.599609375 l 1,20,-1
 422 279.799804688 l 1,21,-1
 150 280.799804688 l 2,22,23
 102.222222222 280.799804688 102.222222222 280.799804688 67.1111111111 309.362811053 c 128,-1,24
 32 337.925817419 32 337.925817419 16.2222222222 380.770326968 c 128,-1,25
 0.444444444444 423.614836516 0.444444444444 423.614836516 0.444444444444 473.600097656 c 128,-1,26
 0.444444444444 523.585358796 0.444444444444 523.585358796 16.2222222222 566.429868345 c 128,-1,27
 32 609.274377894 32 609.274377894 67.1111111111 637.837384259 c 128,-1,28
 102.222222222 666.400390625 102.222222222 666.400390625 150 666.400390625 c 2,0,-1
EndSplineSet
EndChar

StartChar: T
Encoding: 84 84 26
Width: 630
Flags: W
LayerCount: 2
Fore
SplineSet
0 666 m 1,0,-1
 550 666.400390625 l 1,1,-1
 550 535.799804688 l 1,2,-1
 350 535.799804688 l 1,3,-1
 350 -0.2001953125 l 1,4,-1
 200 -0.2001953125 l 1,5,-1
 200 535.799804688 l 1,6,-1
 0 535.799804688 l 1,7,-1
 0 666 l 1,0,-1
EndSplineSet
EndChar

StartChar: U
Encoding: 85 85 27
Width: 730
Flags: W
LayerCount: 2
Fore
SplineSet
0 666.400390625 m 1,0,-1
 178 666.400390625 l 1,1,-1
 178 153.400390625 l 1,2,-1
 228 102.200195312 l 1,3,-1
 428 102.200195312 l 1,4,-1
 478 153.400390625 l 1,5,-1
 478 666.400390625 l 1,6,-1
 650 666.400390625 l 1,7,-1
 651.5625 209.681640625 l 1,8,-1
 650 -0.2001953125 l 1,9,-1
 326.5625 -2.2685546875 l 2,10,11
 288.820301783 -2.64167764078 288.820301783 -2.64167764078 255.692729767 -2.31943640689 c 128,-1,12
 222.56515775 -1.99719517301 222.56515775 -1.99719517301 193.979338134 -0.418229970422 c 128,-1,13
 165.393518519 1.16073523216 165.393518519 1.16073523216 141.203703704 5.06662326389 c 128,-1,14
 117.013888889 8.97251129561 117.013888889 8.97251129561 97.1472050754 15.766681938 c 128,-1,15
 77.280521262 22.5608525804 77.280521262 22.5608525804 61.5912208505 33.3135046939 c 128,-1,16
 45.901920439 44.0661568074 45.901920439 44.0661568074 34.3171296296 59.3386501736 c 128,-1,17
 22.7323388203 74.6111435398 22.7323388203 74.6111435398 15.1063100137 95.473677019 c 128,-1,18
 7.48028120713 116.336210498 7.48028120713 116.336210498 3.74014060357 143.350143872 c 128,-1,19
 0 170.364077246 0 170.364077246 0 204.599609375 c 2,20,-1
 0 666.400390625 l 1,0,-1
EndSplineSet
EndChar

StartChar: V
Encoding: 86 86 28
Width: 760
Flags: W
LayerCount: 2
Fore
SplineSet
0 666.400390625 m 1,0,-1
 150 666.400390625 l 1,1,-1
 332.52734375 102.200195312 l 1,2,-1
 354.665039062 102.200195312 l 1,3,-1
 578 666.400390625 l 1,4,-1
 678 666.400390625 l 1,5,-1
 678 614.200195312 l 1,6,-1
 428 -0.2001953125 l 1,7,-1
 200 -0.2001953125 l 1,8,-1
 0 614.200195312 l 1,9,-1
 0 666.400390625 l 1,0,-1
EndSplineSet
EndChar

StartChar: W
Encoding: 87 87 29
Width: 704
Flags: W
LayerCount: 2
Fore
SplineSet
-1 2 m 1,0,-1
 -1 667 l 1,1,-1
 175 667.200195312 l 1,2,-1
 175 102 l 1,3,-1
 225 102 l 1,4,-1
 275 103.200195312 l 1,5,-1
 275 667.200195312 l 1,6,-1
 375 667.200195312 l 1,7,-1
 375 102 l 1,8,-1
 420 102 l 1,9,-1
 475 153.200195312 l 1,10,-1
 475 667.200195312 l 1,11,-1
 625 667.200195312 l 1,12,-1
 624.70703125 257.599609375 l 2,13,14
 624.738806324 141.372301014 624.738806324 141.372301014 571.039774764 70.9859551947 c 128,-1,15
 517.340743204 0.599609375 517.340743204 0.599609375 425.5 0.599609375 c 2,16,-1
 -1 2 l 1,0,-1
EndSplineSet
EndChar

StartChar: Z
Encoding: 90 90 30
Width: 726
Flags: W
LayerCount: 2
Fore
SplineSet
0 666.400390625 m 1,0,-1
 650 666.400390625 l 1,1,-1
 650 511.799804688 l 1,2,-1
 177.373046875 126.530273438 l 1,3,-1
 650 128.651367188 l 1,4,-1
 650 -0.2001953125 l 1,5,-1
 0 -0.2001953125 l 1,6,-1
 0 153.400390625 l 1,7,-1
 471.919921875 533.013671875 l 1,8,-1
 0 532.305664062 l 1,9,-1
 0 666.400390625 l 1,0,-1
EndSplineSet
EndChar

StartChar: X
Encoding: 88 88 31
Width: 734
Flags: W
LayerCount: 2
Fore
SplineSet
0 666.400390625 m 1,0,-1
 114.400390625 666.400390625 l 1,1,-1
 325 451.837890625 l 1,2,-1
 535.599609375 666.400390625 l 1,3,-1
 650 666.400390625 l 1,4,-1
 650 548.703125 l 1,5,-1
 439.400390625 333.099609375 l 1,6,-1
 650 117.49609375 l 1,7,-1
 650 -0.2001953125 l 1,8,-1
 535.599609375 -0.2001953125 l 1,9,-1
 325 215.403320312 l 1,10,-1
 114.400390625 -0.2001953125 l 1,11,-1
 0 -0.2001953125 l 1,12,-1
 0 117.49609375 l 1,13,-1
 210.599609375 333.099609375 l 1,14,-1
 0 548.703125 l 1,15,-1
 0 666.400390625 l 1,0,-1
EndSplineSet
EndChar

StartChar: Y
Encoding: 89 89 32
Width: 832
Flags: W
LayerCount: 2
Fore
SplineSet
0 666.400390625 m 1,0,-1
 150 666.400390625 l 1,1,-1
 400 409.400390625 l 1,2,-1
 650 666.400390625 l 1,3,-1
 750 666.400390625 l 1,4,-1
 750 563 l 1,5,-1
 474.5 281.5 l 1,6,-1
 477 -0.2001953125 l 1,7,-1
 320.5 -0.2001953125 l 1,8,-1
 320.5 255.799804688 l 1,9,-1
 321 283.5 l 1,10,-1
 0 614.200195312 l 1,11,-1
 0 666.400390625 l 1,0,-1
EndSplineSet
EndChar

StartChar: q
Encoding: 113 113 33
Width: 582
Flags: W
LayerCount: 2
Fore
SplineSet
376 124.200195312 m 1,0,-1
 376 383.400390625 l 1,1,-1
 200 383.400390625 l 1,2,-1
 150 333 l 1,3,-1
 150 175.400390625 l 1,4,-1
 200 124.200195312 l 1,5,-1
 376 124.200195312 l 1,0,-1
500 511.799804688 m 1,6,-1
 501 -205 l 1,7,-1
 375.75 -205 l 1,8,-1
 376.25 -0.2001953125 l 1,9,-1
 250 -0.2001953125 l 2,10,11
 190.591561454 -0.2001953125 190.591561454 -0.2001953125 142.426343801 21.7998046875 c 128,-1,12
 94.2611261485 43.7998046875 94.2611261485 43.7998046875 64.5997563576 79.7998046875 c 128,-1,13
 34.9383865668 115.799804688 34.9383865668 115.799804688 18.7931193138 161.799804688 c 128,-1,14
 2.64785206075 207.799804688 2.64785206075 207.799804688 2.55098926778 255.799804688 c 128,-1,15
 2.45412647481 303.799804688 2.45412647481 303.799804688 18.4614695335 349.799804688 c 128,-1,16
 34.4688125922 395.799804688 34.4688125922 395.799804688 64.0691167092 431.799804688 c 128,-1,17
 93.6694208262 467.799804688 93.6694208262 467.799804688 141.962034109 489.799804688 c 128,-1,18
 190.254647391 511.799804688 190.254647391 511.799804688 250 511.799804688 c 2,19,-1
 376 511.799804688 l 1,20,-1
 500 511.799804688 l 1,6,-1
EndSplineSet
EndChar

StartChar: e
Encoding: 101 101 34
Width: 581
Flags: W
LayerCount: 2
Fore
SplineSet
376 307 m 1,0,-1
 376 359 l 1,1,-1
 326 409.400390625 l 1,2,-1
 178.080078125 409.400390625 l 1,3,-1
 128.080078125 358.200195312 l 1,4,-1
 128.080078125 307 l 1,5,-1
 376 307 l 1,0,-1
200 511.799804688 m 2,6,-1
 300 511.799804688 l 2,7,8
 392.967730802 511.799804688 392.967730802 511.799804688 446.483865401 456.512555011 c 128,-1,9
 500 401.225305335 500 401.225305335 500 307 c 2,10,-1
 500 255.799804688 l 1,11,-1
 500 214.599609375 l 1,12,-1
 128.787109375 214.599609375 l 1,13,-1
 128.787109375 153.400390625 l 1,14,-1
 178.787109375 102.200195312 l 1,15,-1
 432 102.200195312 l 1,16,-1
 432 -0.2001953125 l 1,17,-1
 200 -0.2001953125 l 2,18,19
 107.156642518 -0.2001953125 107.156642518 -0.2001953125 53.5783212588 55.7874258033 c 128,-1,20
 0 111.775046919 0 111.775046919 0 204.599609375 c 2,21,-1
 0 307 l 2,22,23
 0 401.718847417 0 401.718847417 52.5847112495 456.759326052 c 128,-1,24
 105.169422499 511.799804688 105.169422499 511.799804688 200 511.799804688 c 2,6,-1
EndSplineSet
EndChar

StartChar: f
Encoding: 102 102 35
Width: 530
Flags: W
LayerCount: 2
Fore
SplineSet
400 666.400390625 m 2,0,-1
 450 666.400390625 l 1,1,-1
 450 562.5 l 1,2,-1
 366 562.5 l 1,3,-1
 282 562.5 l 1,4,-1
 232 511.299804688 l 1,5,-1
 232 460.099609375 l 1,6,-1
 450 460.099609375 l 1,7,-1
 450 358.5 l 1,8,-1
 232 358.5 l 1,9,-1
 232 -0.7001953125 l 1,10,-1
 100 -0.7001953125 l 1,11,-1
 100 358.5 l 1,12,-1
 0 358.5 l 1,13,-1
 0 460.099609375 l 1,14,-1
 100 460.099609375 l 1,15,16
 100 572.287536621 100 572.287536621 172.673744519 619.343963623 c 128,-1,17
 245.347489037 666.400390625 245.347489037 666.400390625 400 666.400390625 c 2,0,-1
EndSplineSet
EndChar

StartChar: g
Encoding: 103 103 36
Width: 582
Flags: W
LayerCount: 2
Fore
SplineSet
190 120.200195312 m 1,0,-1
 374 120.200195312 l 1,1,-1
 376 333 l 1,2,-1
 377 383.400390625 l 1,3,-1
 190 383.400390625 l 1,4,-1
 140 333 l 1,5,-1
 140 171.400390625 l 1,6,-1
 190 120.200195312 l 1,0,-1
500 511.799804688 m 1,7,-1
 500 -43.400390625 l 2,8,9
 500 -121.200012207 500 -121.200012207 462.047073406 -163.100006104 c 128,-1,10
 424.094146812 -205 424.094146812 -205 350 -205 c 2,11,-1
 151 -205 l 1,12,-1
 50 -205 l 1,13,-1
 50 -94.599609375 l 1,14,-1
 150 -94.599609375 l 1,15,-1
 200 -94.599609375 l 1,16,-1
 300 -94.599609375 l 1,17,-1
 350 -69 l 1,18,-1
 376 -43.400390625 l 1,19,-1
 376 -0.2001953125 l 1,20,-1
 200 -0.2001953125 l 2,21,22
 151.615869795 -0.2001953125 151.615869795 -0.2001953125 112.663486364 21.7998046875 c 128,-1,23
 73.7111029333 43.7998046875 73.7111029333 43.7998046875 49.9863759255 79.7998046875 c 128,-1,24
 26.2616489177 115.799804688 26.2616489177 115.799804688 13.5452574516 161.799804688 c 128,-1,25
 0.828865985481 207.799804688 0.828865985481 207.799804688 1.11639606709 255.799804688 c 128,-1,26
 1.40392614871 303.799804688 1.40392614871 303.799804688 14.5297354484 349.799804688 c 128,-1,27
 27.6555447481 395.799804688 27.6555447481 395.799804688 51.5615407204 431.799804688 c 128,-1,28
 75.4675366927 467.799804688 75.4675366927 467.799804688 114.041755559 489.799804688 c 128,-1,29
 152.615974426 511.799804688 152.615974426 511.799804688 200 511.799804688 c 2,30,-1
 450 511.799804688 l 1,31,-1
 500 511.799804688 l 1,7,-1
EndSplineSet
EndChar

StartChar: i
Encoding: 105 105 37
Width: 232
Flags: W
LayerCount: 2
Fore
SplineSet
0 666.400390625 m 1,0,-1
 150 666.264648438 l 1,1,-1
 150 563 l 1,2,-1
 0 563 l 1,3,-1
 0 666.400390625 l 1,0,-1
0 460.599609375 m 1,4,-1
 150 460.599609375 l 1,5,-1
 150 -0.2001953125 l 1,6,-1
 0 -0.2001953125 l 1,7,-1
 0 460.599609375 l 1,4,-1
EndSplineSet
EndChar

StartChar: j
Encoding: 106 106 38
Width: 530
Flags: W
LayerCount: 2
Fore
SplineSet
300 666.53515625 m 1,0,-1
 450 666.400390625 l 1,1,-1
 450 563.134765625 l 1,2,-1
 300 563.134765625 l 1,3,-1
 300 666.53515625 l 1,0,-1
300 460.735351562 m 1,4,-1
 450 460.735351562 l 1,5,-1
 450 -0.064453125 l 2,6,7
 450 -43.7689291872 450 -43.7689291872 434.606481481 -80.3474788587 c 128,-1,8
 419.212962963 -116.92602853 419.212962963 -116.92602853 393.171296296 -140.531728799 c 128,-1,9
 367.12962963 -164.137429069 367.12962963 -164.137429069 333.37191358 -180.629599593 c 128,-1,10
 299.614197531 -197.121770118 299.614197531 -197.121770118 262.307098765 -200.656651103 c 128,-1,11
 225 -204.191532088 225 -204.191532088 187.692901235 -200.625069094 c 128,-1,12
 150.385802469 -197.058606099 150.385802469 -197.058606099 116.62808642 -180.550413427 c 128,-1,13
 82.8703703704 -164.042220755 82.8703703704 -164.042220755 56.8287037037 -140.44486987 c 128,-1,14
 30.787037037 -116.847518984 30.787037037 -116.847518984 15.3935185185 -80.3239982825 c 128,-1,15
 0 -43.8004775813 0 -43.8004775813 0 -0.2001953125 c 1,16,-1
 150 -0.2001953125 l 1,17,-1
 150 -77 l 1,18,-1
 200 -102.599609375 l 1,19,-1
 250 -102.599609375 l 1,20,-1
 300 -77 l 1,21,-1
 300 -0.064453125 l 1,22,-1
 300 460.735351562 l 1,4,-1
EndSplineSet
EndChar

StartChar: k
Encoding: 107 107 39
Width: 634
Flags: W
LayerCount: 2
Fore
SplineSet
0 666.400390625 m 1,0,-1
 150 666.400390625 l 1,1,-1
 150 339 l 1,2,-1
 250 339 l 1,3,-1
 468.384765625 511.799804688 l 1,4,-1
 550 511.799804688 l 1,5,-1
 550 434.521484375 l 1,6,-1
 350 278.548828125 l 1,7,-1
 550 80.986328125 l 1,8,-1
 550 -0.2001953125 l 1,9,-1
 468 -0.2001953125 l 1,10,-1
 250 224.599609375 l 1,11,-1
 150 224.599609375 l 1,12,-1
 150 -0.2001953125 l 1,13,-1
 0 -0.2001953125 l 1,14,-1
 0 666.400390625 l 1,0,-1
EndSplineSet
EndChar

StartChar: l
Encoding: 108 108 40
Width: 210
Flags: W
LayerCount: 2
Fore
SplineSet
0 666.400390625 m 1,0,-1
 130 666.400390625 l 1,1,-1
 130 -0.2001953125 l 1,2,-1
 0 -0.2001953125 l 1,3,-1
 0 666.400390625 l 1,0,-1
EndSplineSet
EndChar

StartChar: m
Encoding: 109 109 41
Width: 682
Flags: W
LayerCount: 2
Fore
SplineSet
0 511 m 1,0,-1
 400 511.799804688 l 2,1,2
 454.053591621 511.799804688 454.053591621 511.799804688 494.452497279 494.510436829 c 128,-1,3
 534.851402936 477.221068971 534.851402936 477.221068971 557.360002721 447.489502136 c 128,-1,4
 579.868602506 417.757935301 579.868602506 417.757935301 590.327497279 382.51068097 c 128,-1,5
 600.786392052 347.263426639 600.786392052 347.263426639 600 307 c 2,6,-1
 600 -0.2001953125 l 1,7,-1
 474 -0.2001953125 l 1,8,-1
 474 335 l 1,9,-1
 424 385.400390625 l 1,10,-1
 350 385.400390625 l 1,11,-1
 350 -0.2001953125 l 1,12,-1
 226 -0.2001953125 l 1,13,-1
 226 385.400390625 l 1,14,-1
 124 385.400390625 l 1,15,-1
 124 -0.2001953125 l 1,16,-1
 0 0 l 1,17,-1
 0 511 l 1,0,-1
EndSplineSet
EndChar

StartChar: n
Encoding: 110 110 42
Width: 582
Flags: W
LayerCount: 2
Fore
SplineSet
0 511 m 1,0,-1
 300 511.799804688 l 2,1,2
 354.053591621 511.799804688 354.053591621 511.799804688 394.452497279 494.510436829 c 128,-1,3
 434.851402936 477.221068971 434.851402936 477.221068971 457.360002721 447.489502136 c 128,-1,4
 479.868602506 417.757935301 479.868602506 417.757935301 490.327497279 382.51068097 c 128,-1,5
 500.786392052 347.263426639 500.786392052 347.263426639 500 307 c 2,6,-1
 500 -0.2001953125 l 1,7,-1
 374 -0.2001953125 l 1,8,-1
 374 335 l 1,9,-1
 324 385.400390625 l 1,10,-1
 150 385.400390625 l 1,11,-1
 150 -0.2001953125 l 1,12,-1
 0 0 l 1,13,-1
 0 511 l 1,0,-1
EndSplineSet
EndChar

StartChar: o
Encoding: 111 111 43
Width: 578
Flags: W
LayerCount: 2
Fore
SplineSet
326 383.400390625 m 1,0,-1
 174 383.400390625 l 1,1,-1
 124 333 l 1,2,-1
 124 177.400390625 l 1,3,-1
 174 126.200195312 l 1,4,-1
 326 126.200195312 l 1,5,-1
 376 177.400390625 l 1,6,-1
 376 333 l 1,7,-1
 326 383.400390625 l 1,0,-1
250 511.799804688 m 128,-1,9
 379.823148611 511.799804688 379.823148611 511.799804688 439.911574305 449.712194823 c 128,-1,10
 500 387.624584958 500 387.624584958 500 253.418945312 c 0,11,12
 500 122.075553638 500 122.075553638 439.846095901 60.9376791628 c 128,-1,13
 379.692191802 -0.2001953125 379.692191802 -0.2001953125 250 -0.2001953125 c 128,-1,14
 120.130565 -0.2001953125 120.130565 -0.2001953125 60.0652825 61.4120729172 c 128,-1,15
 0 123.024341147 0 123.024341147 0 256.491210938 c 0,16,17
 0 388.573372467 0 388.573372467 60.1766091942 450.186588577 c 128,-1,8
 120.353218388 511.799804688 120.353218388 511.799804688 250 511.799804688 c 128,-1,9
EndSplineSet
EndChar

StartChar: r
Encoding: 114 114 44
Width: 582
Flags: W
LayerCount: 2
Fore
SplineSet
0 513 m 1,0,-1
 150 511.799804688 l 1,1,-1
 150 381.400390625 l 1,2,3
 154.639471372 385.690337482 154.639471372 385.690337482 163.377336905 393.83411925 c 0,4,5
 192.442460379 420.923117326 192.442460379 420.923117326 207.471188464 433.193492235 c 128,-1,6
 222.499916548 445.463867144 222.499916548 445.463867144 249.93811335 461.82244146 c 128,-1,7
 277.376310151 478.181015776 277.376310151 478.181015776 312.328455845 489.252860331 c 128,-1,8
 347.28060154 500.324704886 347.28060154 500.324704886 400 511.799804688 c 1,9,-1
 500 511.799804688 l 1,10,-1
 500 359.400390625 l 1,11,-1
 400 359.400390625 l 2,12,13
 330.429845909 357.978756146 330.429845909 357.978756146 281.060758956 339.783612829 c 128,-1,14
 231.691672003 321.588469512 231.691672003 321.588469512 204.096142086 295.244707483 c 128,-1,15
 176.500612169 268.900945455 176.500612169 268.900945455 150 225.799804688 c 1,16,-1
 150 -0.2001953125 l 1,17,-1
 0 -0.2001953125 l 1,18,-1
 0 513 l 1,0,-1
EndSplineSet
EndChar

StartChar: t
Encoding: 116 116 45
Width: 582
Flags: W
LayerCount: 2
Fore
SplineSet
0 511.799804688 m 1,0,-1
 174 511.799804688 l 1,1,-1
 174 666.400390625 l 1,2,-1
 332 666.400390625 l 1,3,-1
 332 511.799804688 l 1,4,-1
 500 511.799804688 l 1,5,-1
 500 409.400390625 l 1,6,-1
 332 409.400390625 l 1,7,-1
 332 -0.2001953125 l 1,8,-1
 174 -0.2001953125 l 1,9,-1
 174 409.400390625 l 1,10,-1
 0 409.400390625 l 1,11,-1
 0 511.799804688 l 1,0,-1
EndSplineSet
EndChar

StartChar: u
Encoding: 117 117 46
Width: 580
Flags: W
LayerCount: 2
Fore
SplineSet
0 511.799804688 m 1,0,-1
 128.80859375 511.799804688 l 1,1,-1
 127.720703125 157.666015625 l 1,2,-1
 166.182617188 114.34375 l 1,3,-1
 372.490234375 113.666015625 l 1,4,-1
 372.490234375 511.799804688 l 1,5,-1
 500 511.799804688 l 1,6,-1
 500 -0.2001953125 l 1,7,-1
 250 -0.0537109375 l 2,8,9
 132.393527935 0.0159647718615 132.393527935 0.0159647718615 66.1967639674 42.4029496013 c 128,-1,10
 0 84.7899344308 0 84.7899344308 0 173.092773438 c 2,11,-1
 0 511.799804688 l 1,0,-1
EndSplineSet
EndChar

StartChar: v
Encoding: 118 118 47
Width: 581
Flags: W
LayerCount: 2
Fore
SplineSet
0 511.799804688 m 1,0,-1
 128 511.799804688 l 1,1,-1
 229.091796875 125.701171875 l 1,2,-1
 284 125.823242188 l 1,3,-1
 400 511.799804688 l 1,4,-1
 500 511.799804688 l 1,5,-1
 350 -0.2001953125 l 1,6,-1
 120.505859375 -0.2001953125 l 1,7,-1
 0 438.391601562 l 1,8,-1
 0 511.799804688 l 1,0,-1
EndSplineSet
EndChar

StartChar: w
Encoding: 119 119 48
Width: 680
Flags: W
LayerCount: 2
Fore
SplineSet
1.5 1.873046875 m 1,0,-1
 1.5 511.646484375 l 1,1,-1
 141.71875 511.799804688 l 1,2,-1
 141.71875 78.53125 l 1,3,-1
 244.330078125 79.451171875 l 1,4,-1
 244.330078125 511.799804688 l 1,5,-1
 366 511.799804688 l 1,6,-1
 366 78.53125 l 1,7,-1
 430.676757812 78.53125 l 1,8,-1
 474.495117188 117.779296875 l 1,9,-1
 474.495117188 511.799804688 l 1,10,-1
 600 511.799804688 l 1,11,-1
 599.766601562 197.810546875 l 2,12,13
 599.791726079 108.713098166 599.791726079 108.713098166 557.009914253 54.7564514267 c 128,-1,14
 514.228102426 0.7998046875 514.228102426 0.7998046875 441.05859375 0.7998046875 c 2,15,-1
 1.5 1.873046875 l 1,0,-1
EndSplineSet
EndChar

StartChar: x
Encoding: 120 120 49
Width: 582
Flags: W
LayerCount: 2
Fore
SplineSet
0 511.799804688 m 1,0,-1
 88 511.799804688 l 1,1,-1
 250 347 l 1,2,-1
 412 511.799804688 l 1,3,-1
 500 511.799804688 l 1,4,-1
 500 421.400390625 l 1,5,-1
 338 255.799804688 l 1,6,-1
 500 90.2001953125 l 1,7,-1
 500 -0.2001953125 l 1,8,-1
 412 -0.2001953125 l 1,9,-1
 250 165.400390625 l 1,10,-1
 88 -0.2001953125 l 1,11,-1
 0 -0.2001953125 l 1,12,-1
 0 90.2001953125 l 1,13,-1
 162 255.799804688 l 1,14,-1
 0 421.400390625 l 1,15,-1
 0 511.799804688 l 1,0,-1
EndSplineSet
EndChar

StartChar: y
Encoding: 121 121 50
Width: 580
Flags: W
LayerCount: 2
Fore
SplineSet
0 511.799804688 m 1,0,-1
 128.80859375 511.799804688 l 1,1,-1
 127.720703125 157.666015625 l 1,2,-1
 166.182617188 114.34375 l 1,3,-1
 372.490234375 113.666015625 l 1,4,-1
 372.490234375 511.799804688 l 1,5,-1
 500 511.799804688 l 1,6,-1
 500 -0.2001953125 l 1,7,-1
 500 -51.400390625 l 2,8,9
 500 -204.999511719 500 -204.999511719 350 -205 c 2,10,-1
 100 -205 l 1,11,-1
 100 -102.599609375 l 1,12,-1
 350 -102.599609375 l 1,13,-1
 400 -51.400390625 l 1,14,-1
 400 -0.2001953125 l 1,15,-1
 250 -0.0537109375 l 2,16,17
 132.372699652 0.0619252757327 132.372699652 0.0619252757327 66.186349826 42.4311614381 c 128,-1,18
 0 84.8003976004 0 84.8003976004 0 173.092773438 c 2,19,-1
 0 511.799804688 l 1,0,-1
EndSplineSet
EndChar

StartChar: z
Encoding: 122 122 51
Width: 580
Flags: W
LayerCount: 2
Fore
SplineSet
0 511 m 1,0,-1
 500 511.799804688 l 1,1,-1
 500 409.400390625 l 1,2,-1
 200 102.200195312 l 1,3,-1
 500 102.200195312 l 1,4,-1
 500 -0.2001953125 l 1,5,-1
 0 -1 l 1,6,-1
 0 102.200195312 l 1,7,-1
 300 409.400390625 l 1,8,-1
 0 409.400390625 l 1,9,-1
 0 511 l 1,0,-1
EndSplineSet
EndChar

StartChar: zero
Encoding: 48 48 52
Width: 680
Flags: W
LayerCount: 2
Fore
SplineSet
450 329 m 1,0,-1
 150 204.599609375 l 1,1,-1
 150 153.400390625 l 1,2,-1
 200 102.200195312 l 1,3,-1
 400 102.200195312 l 1,4,-1
 450 153.400390625 l 1,5,-1
 450 329 l 1,0,-1
400 563 m 1,6,-1
 200 561.799804688 l 1,7,-1
 150 511.799804688 l 1,8,-1
 150 333 l 1,9,-1
 450 460.599609375 l 1,10,-1
 450 511.799804688 l 1,11,-1
 400 563 l 1,6,-1
300 666.400390625 m 128,-1,13
 347.922860518 666.400390625 347.922860518 666.400390625 389.090357565 659.538416233 c 128,-1,14
 430.257854611 652.67644184 430.257854611 652.67644184 470.109642435 634.713490017 c 128,-1,15
 509.961430259 616.750538194 509.961430259 616.750538194 537.890357565 588.543150608 c 128,-1,16
 565.81928487 560.335763021 565.81928487 560.335763021 582.909642435 514.566271267 c 128,-1,17
 600 468.796779514 600 468.796779514 600 409.400390625 c 2,18,-1
 600 255.799804688 l 2,19,20
 600 196.407860243 600 196.407860243 582.900002384 150.737479601 c 128,-1,21
 565.800004768 105.067098958 565.800004768 105.067098958 537.899997616 77.0094891493 c 128,-1,22
 509.999990463 48.9518793403 509.999990463 48.9518793403 470.100002384 31.1342608507 c 128,-1,23
 430.200014305 13.3166423611 430.200014305 13.3166423611 389.099997616 6.55822352431 c 128,-1,24
 347.999980927 -0.2001953125 347.999980927 -0.2001953125 300 -0.2001953125 c 128,-1,25
 252.000019073 -0.2001953125 252.000019073 -0.2001953125 210.900002384 6.55822352431 c 128,-1,26
 169.799985695 13.3166423611 169.799985695 13.3166423611 129.899997616 31.1342608507 c 128,-1,27
 90.0000095367 48.9518793403 90.0000095367 48.9518793403 62.1000023842 77.0094891493 c 128,-1,28
 34.1999952316 105.067098958 34.1999952316 105.067098958 17.0999976158 150.737479601 c 128,-1,29
 0 196.407860243 0 196.407860243 0 255.799804688 c 2,30,-1
 0 409.400390625 l 2,31,32
 0 468.796779514 0 468.796779514 17.0903575648 514.566271267 c 128,-1,33
 34.1807151296 560.335763021 34.1807151296 560.335763021 62.1096424352 588.543150608 c 128,-1,34
 90.0385697408 616.750538194 90.0385697408 616.750538194 129.890357565 634.713490017 c 128,-1,35
 169.742145389 652.67644184 169.742145389 652.67644184 210.909642435 659.538416233 c 128,-1,12
 252.077139482 666.400390625 252.077139482 666.400390625 300 666.400390625 c 128,-1,13
EndSplineSet
EndChar

StartChar: one
Encoding: 49 49 53
Width: 478
Flags: W
LayerCount: 2
Fore
SplineSet
0 409.400390625 m 1,0,-1
 250 666.400390625 l 1,1,-1
 400 666.400390625 l 1,2,-1
 400 -0.2001953125 l 1,3,-1
 250 -0.2001953125 l 1,4,-1
 250 409.400390625 l 1,5,-1
 250 460.599609375 l 1,6,-1
 200 460.599609375 l 1,7,-1
 150 409.400390625 l 1,8,-1
 100 359 l 1,9,-1
 0 359 l 1,10,-1
 0 409.400390625 l 1,0,-1
EndSplineSet
EndChar

StartChar: two
Encoding: 50 50 54
Width: 678
Flags: W
LayerCount: 2
Fore
SplineSet
0 460.599609375 m 1,0,1
 0 497.526885986 0 497.526885986 0.547603248953 514.262823105 c 128,-1,2
 1.09520649791 530.998760223 1.09520649791 530.998760223 4.72583425105 557.197601318 c 128,-1,3
 8.35646200419 583.396442413 8.35646200419 583.396442413 15.781978249 594.014223099 c 128,-1,4
 23.2074944937 604.632003784 23.2074944937 604.632003784 37.538334251 620.717697144 c 128,-1,5
 51.8691740084 636.803390503 51.8691740084 636.803390503 73.203853249 642.491987228 c 128,-1,6
 94.5385324895 648.180583954 94.5385324895 648.180583954 126.600834251 655.342102051 c 128,-1,7
 158.663136013 662.503620148 158.663136013 662.503620148 200.938228249 664.452005386 c 128,-1,8
 243.213320485 666.400390625 243.213320485 666.400390625 300 666.400390625 c 0,9,10
 375.915966703 666.400390625 375.915966703 666.400390625 427.389495838 659.411010517 c 128,-1,11
 478.863024973 652.421630409 478.863024973 652.421630409 513.410504162 638.527239483 c 128,-1,12
 547.957983351 624.632848558 547.957983351 624.632848558 566.589495838 599.065182392 c 128,-1,13
 585.221008324 573.497516226 585.221008324 573.497516226 592.610504162 541.317270733 c 128,-1,14
 600 509.13702524 600 509.13702524 600 460.599609375 c 2,15,-1
 600 432.400390625 l 2,16,17
 600 390.750282716 600 390.750282716 577.842782069 360.812904794 c 128,-1,18
 555.685564137 330.875526872 555.685564137 330.875526872 519.387538631 314.102068785 c 128,-1,19
 483.089513125 297.328610698 483.089513125 297.328610698 438.775726675 285.265198435 c 128,-1,20
 394.461940226 273.201786172 394.461940226 273.201786172 347.958967202 262.918395315 c 128,-1,21
 301.455994179 252.635004459 301.455994179 252.635004459 261.224706267 240.351056215 c 128,-1,22
 220.993418355 228.067107971 220.993418355 228.067107971 190.52456487 206.179282706 c 128,-1,23
 160.055711385 184.291457441 160.055711385 184.291457441 150 153.400390625 c 1,24,-1
 150 102.200195312 l 1,25,-1
 600 102.200195312 l 1,26,-1
 600 -0.2001953125 l 1,27,-1
 0 -0.2001953125 l 1,28,-1
 0 153.400390625 l 2,29,30
 0 191.541883386 0 191.541883386 28.0189237669 231.394192682 c 128,-1,31
 56.0378475337 271.246501978 56.0378475337 271.246501978 105.574826233 305.069781317 c 128,-1,32
 155.111804933 338.893060657 155.111804933 338.893060657 232.706423767 360.446530328 c 128,-1,33
 310.301042601 382 310.301042601 382 400 382 c 1,34,-1
 450 432.400390625 l 1,35,-1
 450 511.799804688 l 1,36,-1
 400 563 l 1,37,-1
 176 563 l 1,38,-1
 126 511.799804688 l 1,39,-1
 126 460.599609375 l 1,40,-1
 0 460.599609375 l 1,0,1
EndSplineSet
EndChar

StartChar: three
Encoding: 51 51 55
Width: 680
Flags: W
LayerCount: 2
Fore
SplineSet
0 460.599609375 m 1,0,1
 0 575.950048828 0 575.950048828 43.8226741435 621.175219727 c 128,-1,2
 87.645348287 666.400390625 87.645348287 666.400390625 200 666.400390625 c 2,3,-1
 400 666.400390625 l 2,4,5
 512.354651713 666.400390625 512.354651713 666.400390625 556.177325856 621.175219727 c 128,-1,6
 600 575.950048828 600 575.950048828 600 460.599609375 c 0,7,8
 600 433.536119473 600 433.536119473 593.191078631 413.516598392 c 128,-1,9
 586.382157261 393.497077311 586.382157261 393.497077311 570.624713647 378.811363603 c 128,-1,10
 554.867270033 364.125649896 554.867270033 364.125649896 543.03407738 356.532972337 c 128,-1,11
 531.200884727 348.940294778 531.200884727 348.940294778 507.690546918 336.636363499 c 0,12,13
 502.565767755 333.954354795 502.565767755 333.954354795 500 332.599609375 c 1,14,15
 525.023303356 319.787873551 525.023303356 319.787873551 537.764300559 311.84118237 c 128,-1,16
 550.505297762 303.894491189 550.505297762 303.894491189 567.704449441 288.578388553 c 128,-1,17
 584.903601119 273.262285917 584.903601119 273.262285917 592.451800559 252.652003903 c 128,-1,18
 600 232.041721889 600 232.041721889 600 204.599609375 c 0,19,20
 600 89.3998535156 600 89.3998535156 556.249976158 44.5998291016 c 128,-1,21
 512.499952316 -0.2001953125 512.499952316 -0.2001953125 400 -0.2001953125 c 2,22,-1
 200 -0.2001953125 l 2,23,24
 87.5000476837 -0.2001953125 87.5000476837 -0.2001953125 43.7500238419 44.5998291016 c 128,-1,25
 0 89.3998535156 0 89.3998535156 0 204.599609375 c 1,26,-1
 150 204.599609375 l 1,27,-1
 150 153.400390625 l 1,28,-1
 200 102.200195312 l 1,29,-1
 400 102.200195312 l 1,30,-1
 450 153.400390625 l 1,31,-1
 450 229.599609375 l 1,32,-1
 400 276.799804688 l 1,33,-1
 250 277 l 1,34,-1
 250 386 l 1,35,-1
 400 386.400390625 l 1,36,-1
 450 437.599609375 l 1,37,-1
 450 511.799804688 l 1,38,-1
 400 563 l 1,39,-1
 200 563 l 1,40,-1
 150 511.799804688 l 1,41,-1
 150 460.599609375 l 1,42,-1
 0 460.599609375 l 1,0,1
EndSplineSet
EndChar

StartChar: four
Encoding: 52 52 56
Width: 630
Flags: W
LayerCount: 2
Fore
SplineSet
400 511.799804688 m 1,0,-1
 150 332.599609375 l 1,1,-1
 150 282 l 1,2,-1
 400 282 l 1,3,-1
 400 511.799804688 l 1,0,-1
0 153.400390625 m 1,4,-1
 0 359 l 1,5,-1
 400 666.400390625 l 1,6,-1
 550 666.400390625 l 1,7,-1
 550 -0.2001953125 l 1,8,-1
 400 -0.2001953125 l 1,9,-1
 400 153.400390625 l 1,10,-1
 0 153.400390625 l 1,4,-1
EndSplineSet
EndChar

StartChar: five
Encoding: 53 53 57
Width: 630
Flags: W
LayerCount: 2
Fore
SplineSet
0 666.400390625 m 1,0,-1
 550 666.400390625 l 1,1,-1
 550 563 l 1,2,-1
 150 563 l 1,3,-1
 150 460.599609375 l 1,4,-1
 200 460.599609375 l 2,5,6
 201.215157505 460.59572182 201.215157505 460.59572182 203.634846685 460.588033537 c 0,7,8
 251.618783232 460.435570108 251.618783232 460.435570108 274.040105694 460.142752384 c 128,-1,9
 296.461428155 459.849934661 296.461428155 459.849934661 334.028780714 458.34610915 c 128,-1,10
 371.596133274 456.84228364 371.596133274 456.84228364 388.129068033 453.860367823 c 128,-1,11
 404.662002792 450.878452005 404.662002792 450.878452005 431.79941474 445.284943392 c 128,-1,12
 458.936826688 439.691434778 458.936826688 439.691434778 470.172667069 431.286289779 c 128,-1,13
 481.40850745 422.88114478 481.40850745 422.88114478 498.70727211 410.463821975 c 128,-1,14
 516.00603677 398.04649917 516.00603677 398.04649917 522.536076096 381.483993901 c 128,-1,15
 529.066115422 364.921488631 529.066115422 364.921488631 537.117526117 342.946220547 c 128,-1,16
 545.168936812 320.970952463 545.168936812 320.970952463 547.584468406 293.516955834 c 128,-1,17
 550 266.062959206 550 266.062959206 550 231.799804688 c 0,18,19
 550 189.009043818 550 189.009043818 544.001116071 155.272339625 c 128,-1,20
 538.002232143 121.535635433 538.002232143 121.535635433 522.600446429 97.6241447496 c 128,-1,21
 507.198660714 73.7126540664 507.198660714 73.7126540664 492.829241071 56.4910896254 c 128,-1,22
 478.459821429 39.2695251844 478.459821429 39.2695251844 449.162946429 28.7491447496 c 128,-1,23
 419.866071429 18.2287643148 419.866071429 18.2287643148 399.469866071 12.0848396254 c 128,-1,24
 379.073660714 5.94091493595 379.073660714 5.94091493595 338.225446429 3.37414474961 c 128,-1,25
 297.377232143 0.807374563276 297.377232143 0.807374563276 273.297991071 0.303589625388 c 128,-1,26
 249.21875 -0.2001953125 249.21875 -0.2001953125 200 -0.2001953125 c 2,27,-1
 150 -0.2001953125 l 2,28,29
 93.8474180389 -0.2001953125 93.8474180389 -0.2001953125 46.9237090194 47.975016276 c 128,-1,30
 0 96.1502278646 0 96.1502278646 0 153.400390625 c 2,31,-1
 0 204.599609375 l 1,32,-1
 100 204.599609375 l 1,33,-1
 100 153.400390625 l 1,34,-1
 150 102.200195312 l 1,35,-1
 350 102.200195312 l 1,36,-1
 400 153.400390625 l 1,37,-1
 400 308.599609375 l 1,38,-1
 350 359 l 1,39,-1
 0 359 l 1,40,-1
 0 666.400390625 l 1,0,-1
EndSplineSet
EndChar

StartChar: six
Encoding: 54 54 58
Width: 630
Flags: W
LayerCount: 2
Fore
SplineSet
377 277 m 1,0,-1
 150 277 l 1,1,-1
 150 225.799804688 l 1,2,-1
 150 153.400390625 l 1,3,-1
 200 102.200195312 l 1,4,-1
 377 102.200195312 l 1,5,-1
 427 153.400390625 l 1,6,-1
 427 225.799804688 l 1,7,-1
 377 277 l 1,0,-1
300 666.400390625 m 2,8,-1
 450 666.400390625 l 1,9,-1
 450 563 l 1,10,-1
 250 563 l 1,11,-1
 150 460.599609375 l 1,12,-1
 150 387.400390625 l 1,13,-1
 350 387.400390625 l 2,14,15
 428.289457834 387.400390625 428.289457834 387.400390625 489.144728917 338.066813151 c 128,-1,16
 550 288.733235677 550 288.733235677 550 214.599609375 c 2,17,-1
 550 189.400390625 l 2,18,19
 550 113.866780599 550 113.866780599 488.186423068 56.8332926432 c 128,-1,20
 426.372846135 -0.2001953125 426.372846135 -0.2001953125 350 -0.2001953125 c 2,21,-1
 200 -0.2001953125 l 2,22,23
 125.000079473 -0.2001953125 125.000079473 -0.2001953125 62.5000397364 63.7998860677 c 128,-1,24
 0 127.799967448 0 127.799967448 0 204.599609375 c 2,25,-1
 0 359 l 2,26,27
 0 433.742144097 0 433.742144097 43.3177664572 505.46890191 c 128,-1,28
 86.6355329144 577.195659722 86.6355329144 577.195659722 156.682233543 621.798025174 c 128,-1,29
 226.728934171 666.400390625 226.728934171 666.400390625 300 666.400390625 c 2,8,-1
EndSplineSet
EndChar

StartChar: seven
Encoding: 55 55 59
Width: 680
Flags: W
LayerCount: 2
Fore
SplineSet
0 666.400390625 m 1,0,-1
 600 666.400390625 l 1,1,-1
 600 563 l 2,2,3
 600 521.8040813 600 521.8040813 583.454810496 487.118950837 c 128,-1,4
 566.909620991 452.433820373 566.909620991 452.433820373 540.451895044 426.953357495 c 128,-1,5
 513.994169096 401.472894617 513.994169096 401.472894617 481.997084548 377.250744067 c 128,-1,6
 450 353.028593517 450 353.028593517 418.002915452 326.741144485 c 128,-1,7
 386.005830904 300.453695452 386.005830904 300.453695452 359.548104956 270.573248851 c 128,-1,8
 333.090379009 240.692802249 333.090379009 240.692802249 316.545189504 197.477091096 c 128,-1,9
 300 154.261379943 300 154.261379943 300 102.200195312 c 2,10,-1
 300 -0.2001953125 l 1,11,-1
 150 -0.2001953125 l 1,12,-1
 150 102.200195312 l 2,13,14
 150 150.129039171 150 150.129039171 168.518518519 196.721028827 c 128,-1,15
 187.037037037 243.313018482 187.037037037 243.313018482 214.814814815 278.612589337 c 128,-1,16
 242.592592593 313.912160192 242.592592593 313.912160192 275 351.743281793 c 128,-1,17
 307.407407407 389.574403393 307.407407407 389.574403393 335.185185185 420.834847729 c 128,-1,18
 362.962962963 452.095292065 362.962962963 452.095292065 381.481481481 489.698802988 c 128,-1,19
 400 527.302313911 400 527.302313911 400 563 c 1,20,-1
 150 563 l 1,21,-1
 150 511.799804688 l 1,22,-1
 0 511.799804688 l 1,23,-1
 0 666.400390625 l 1,0,-1
EndSplineSet
EndChar

StartChar: eight
Encoding: 56 56 60
Width: 630
Flags: W
LayerCount: 2
Fore
SplineSet
400 511.799804688 m 1,0,-1
 350 563 l 1,1,-1
 200 563 l 1,2,-1
 150 511.799804688 l 1,3,-1
 150 441.599609375 l 1,4,-1
 200 390.400390625 l 1,5,-1
 350 390.400390625 l 1,6,-1
 400 441.599609375 l 1,7,-1
 400 511.799804688 l 1,0,-1
550 460.599609375 m 2,8,9
 549.795753234 415.736601617 549.795753234 415.736601617 519.106365543 387.143052588 c 128,-1,10
 488.416977852 358.549503559 488.416977852 358.549503559 425.08203125 331.951171875 c 1,11,12
 488.97307511 306.419262927 488.97307511 306.419262927 519.473068274 277.97170775 c 128,-1,13
 549.973061437 249.524152574 549.973061437 249.524152574 550 204.599609375 c 2,14,-1
 550 153.400390625 l 2,15,16
 550 80.866780599 550 80.866780599 490.625 40.3332926432 c 128,-1,17
 431.25 -0.2001953125 431.25 -0.2001953125 350 -0.2001953125 c 2,18,-1
 200 -0.2001953125 l 2,19,20
 118.75 -0.2001953125 118.75 -0.2001953125 59.375 40.3332926432 c 128,-1,21
 0 80.866780599 0 80.866780599 0 153.400390625 c 2,22,-1
 0 204.599609375 l 2,23,24
 0.196021745281 248.852546458 0.196021745281 248.852546458 31.3983567464 276.972844294 c 128,-1,25
 62.6006917474 305.09314213 62.6006917474 305.09314213 126.908203125 331.0703125 c 1,26,27
 62.7474218704 357.446760018 62.7474218704 357.446760018 31.4676887986 386.357713344 c 128,-1,28
 0.187955726907 415.26866667 0.187955726907 415.26866667 0 460.599609375 c 2,29,-1
 0 511.799804688 l 2,30,31
 0 584.416748047 0 584.416748047 59.4656669689 625.408569336 c 128,-1,32
 118.931333938 666.400390625 118.931333938 666.400390625 200 666.400390625 c 2,33,-1
 350 666.400390625 l 2,34,35
 431.068666062 666.400390625 431.068666062 666.400390625 490.534333031 625.408569336 c 128,-1,36
 550 584.416748047 550 584.416748047 550 511.799804688 c 2,37,-1
 550 460.599609375 l 2,8,9
400 224.599609375 m 1,38,-1
 350 275.799804688 l 1,39,-1
 200 275.799804688 l 1,40,-1
 150 224.599609375 l 1,41,-1
 150 153.400390625 l 1,42,-1
 200 102.200195312 l 1,43,-1
 350 102.200195312 l 1,44,-1
 400 153.400390625 l 1,45,-1
 400 224.599609375 l 1,38,-1
EndSplineSet
EndChar

StartChar: nine
Encoding: 57 57 61
Width: 630
Flags: WO
LayerCount: 2
Fore
SplineSet
173 389.200195312 m 1,0,-1
 400 389.200195312 l 1,1,-1
 400 440.400390625 l 1,2,-1
 400 512.799804688 l 1,3,-1
 350 564 l 1,4,-1
 173 564 l 1,5,-1
 123 512.799804688 l 1,6,-1
 123 440.400390625 l 1,7,-1
 173 389.200195312 l 1,0,-1
250 -0.2001953125 m 2,8,-1
 100 -0.2001953125 l 1,9,-1
 100 103.200195312 l 1,10,-1
 300 103.200195312 l 1,11,-1
 400 205.599609375 l 1,12,-1
 400 278.799804688 l 1,13,-1
 200 278.799804688 l 2,14,15
 121.710629344 278.799804688 121.710629344 278.799804688 60.8553146721 328.133219401 c 128,-1,16
 0 377.466634115 0 377.466634115 0 451.599609375 c 2,17,-1
 0 476.799804688 l 2,18,19
 0 552.333414714 0 552.333414714 61.8135769323 609.366902669 c 128,-1,20
 123.627153865 666.400390625 123.627153865 666.400390625 200 666.400390625 c 2,21,-1
 350 666.400390625 l 2,22,23
 425 666.400390625 425 666.400390625 487.5 602.400146484 c 128,-1,24
 550 538.399902344 550 538.399902344 550 461.599609375 c 2,25,-1
 550 307.200195312 l 2,26,27
 550 232.458051215 550 232.458051215 506.682233543 160.731293403 c 128,-1,28
 463.364467086 89.0045355903 463.364467086 89.0045355903 393.317766457 44.4021701389 c 128,-1,29
 323.271065829 -0.2001953125 323.271065829 -0.2001953125 250 -0.2001953125 c 2,8,-1
EndSplineSet
EndChar
